<svg width="1398" height="221" viewBox="0 0 1398 221" fill="none" xmlns="http://www.w3.org/2000/svg">
<path d="M674.306 128.293L710.443 8.46191H847.184V128.81C847.184 143.218 855.544 153.725 869.278 153.725C883.012 153.725 891.373 143.218 891.373 128.81V8.46191H961.836V133.012C961.836 187.045 923.917 220.966 869.278 220.966C814.64 220.966 776.721 187.045 776.721 133.012V33.2227L713.729 212.785H633.987L563.205 8.46191H644.142L674.306 128.293ZM1032.34 1.90234C1044.32 -0.0210299 1056.35 -0.119809 1068.37 1.24902C1080.96 2.68107 1093 6.07877 1103.92 13.0283C1124.8 26.3214 1132.94 49.1715 1135.12 72.7656H1071.66C1070.89 57.5954 1064.81 45.4629 1047.29 48.0645C1042.56 48.7664 1038.39 50.5914 1035.28 54.5576C1031.4 59.5207 1031.13 68.8856 1035.27 73.4766C1037.12 75.5191 1039.73 77.2531 1042.31 78.0674C1048.5 80.0329 1054.85 81.5632 1061.2 82.918C1076.45 86.1822 1091.58 89.8684 1105.77 96.6846C1115.91 101.549 1124.18 108.808 1129.99 118.748C1133.76 125.192 1135.63 132.387 1136.43 139.828C1137.47 149.473 1137.11 159.084 1135.24 168.616C1132.94 180.325 1127.93 190.582 1119.76 199.055C1113.39 205.646 1105.75 210.265 1097.37 213.593C1082.71 219.405 1067.4 220.957 1051.89 220.922C1038.78 220.894 1025.8 219.581 1013.18 215.629C984.185 206.554 967.484 180.362 967.483 149.888L1027.72 149.881C1028.5 159.924 1032.9 169.673 1044.18 172.464C1051.09 174.17 1058.02 174.261 1064.65 171.348C1070.48 168.785 1073.33 163.562 1072.93 157.041C1072.43 148.849 1069.3 144.812 1060.75 142.391C1054.94 140.748 1048.97 139.646 1043.04 138.452C1029.21 135.658 1015.46 132.52 1002.58 126.378C992.464 121.548 983.976 114.585 978.027 104.708C973.98 97.9972 971.949 90.5207 971.236 82.6797C970.13 70.5635 970.911 58.615 974.618 46.9902C978.971 33.3579 986.889 22.505 998.493 14.5586C1008.79 7.51071 1020.26 3.83982 1032.34 1.90234ZM240.598 130.74L217.091 137.295L223.872 155.828L209.301 164.869L219.352 171.198L211.215 185.663L216.639 212.786H20V8.46191H198.451L240.598 130.74ZM444.266 74.4697H393.761V212.785H323.649V74.4697H273.145V8.46191H444.266V74.4697ZM623.055 212.785H543.023L536.479 185.482H483.521L475.785 212.785H401.704L472.81 8.46191H552.246L623.055 212.785ZM30.8486 201.937H117.732L114.478 185.663L122.614 171.198L112.563 164.869L127.135 155.828L120.354 137.295L143.86 130.74L105.453 19.3115H30.8486V201.937ZM498.487 129.076H523.594L512.082 74.751L498.487 129.076ZM92.3271 102.487H67.0127V77.1729H92.3271V102.487ZM179.119 77.1729C172.129 77.173 166.462 82.8398 166.462 89.8301C166.462 96.8204 172.129 102.487 179.119 102.487C186.11 102.487 191.776 96.8205 191.776 89.8301C191.776 82.8397 186.11 77.1729 179.119 77.1729Z" fill="#140206"/>
</svg>
